# xmcd
#
# Track frame offsets:
#	150
#	13790
#	31411
#	47025
#	65597
#	82711
#	98200
#	115702
#	131295
#	146063
#	163510
#	179157
#	194245
#	210136
#	223445
#	237985
#	254445
#	273438
#	292138
#
# Disc length: 4052 seconds
# Revision: 0
# Processed by: cddbd v1.5.2PL0 Copyright (c) Steve Scherf et al.
# Submitted via: dBpowerAMP V12.0
#
DISCID=250fd213
DTITLE=Various Artist - Country Radio August 2006
DYEAR=2006
DGENRE=Country
TTITLE0=Emerson Drive - A Good Man
TTITLE1=Carolyn Dawn Johnson - Cry Baby
TTITLE2=George Strait - Give It Away
TTITLE3=Road Hammers The - Girl On The Billboard
TTITLE4=Pat Green - Feels Just Like It Should
TTITLE5=Faith Hill - Sunshine and Summertime
TTITLE6=Lonestar - Mountains
TTITLE7=Big and Rich - 8th Of November
TTITLE8=Jo Dee Messina - It's Too Late To Worry
TTITLE9=Dierks Bentley - Every Mile Is A Memory
TTITLE10=Alan Jackson - Like Red On A Rose
TTITLE11=Jason Aldean - Amarillo Sky
TTITLE12=Heartland - I Loved Her First
TTITLE13=Julie Roberts - The Girl Next Door
TTITLE14=Amanda Wilkinson - Walk Away
TTITLE15=Taylor Swift - Tim McGraw
TTITLE16=Dixie Chicks The - The Voice Inside My Head
TTITLE17=Leann Rimes - Some People
TTITLE18=Johnny Cash - God's Gonna Cut You Down
EXTD=
EXTT0=
EXTT1=
EXTT2=
EXTT3=
EXTT4=
EXTT5=
EXTT6=
EXTT7=
EXTT8=
EXTT9=
EXTT10=
EXTT11=
EXTT12=
EXTT13=
EXTT14=
EXTT15=
EXTT16=
EXTT17=
EXTT18=
PLAYORDER=
